<svg width="140" height="36" viewBox="0 0 154 48" fill="none" xmlns="http://www.w3.org/2000/svg"><path fill-rule="evenodd" clip-rule="evenodd" d="M18.2345 5.44791C18.7396 5.34404 19.2605 5.34404 19.7655 5.44791C20.3493 5.56797 20.8711 5.86022 21.2859 6.09257L21.2859 6.09258L21.399 6.15575L35.4585 13.9666C35.4742 13.9753 35.4902 13.9842 35.5063 13.9931C35.5295 14.0059 35.553 14.0188 35.5769 14.032L35.5784 14.0328C36.0176 14.2747 36.5697 14.5788 36.9937 15.0389C37.3603 15.4368 37.6378 15.9083 37.8075 16.4219C38.0038 17.016 38.0015 17.6464 37.9996 18.1477C37.9995 18.1946 37.9993 18.2403 37.9993 18.2847V33.7067C37.9993 33.7256 37.9993 33.7448 37.9994 33.7642C37.9994 33.7903 37.9995 33.8168 37.9996 33.8437C38.0015 34.3451 38.0038 34.9754 37.8075 35.5695C37.6378 36.0832 37.3603 36.5547 36.9937 36.9525C36.5697 37.4126 36.0176 37.7167 35.5784 37.9586L35.5107 37.9959L35.4585 38.0249L21.399 45.8357L21.2859 45.8989C20.8711 46.1312 20.3493 46.4235 19.7655 46.5435C19.2605 46.6474 18.7396 46.6474 18.2345 46.5435C17.6507 46.4235 17.1289 46.1312 16.7141 45.8989L16.601 45.8357L2.54153 38.0249C2.50298 38.0034 2.46327 37.9816 2.42259 37.9592L2.42157 37.9586C1.98244 37.7167 1.43029 37.4126 1.00627 36.9525C0.639677 36.5547 0.362247 36.0832 0.192536 35.5695C-0.00375985 34.9754 -0.00146325 34.3451 0.000363158 33.8437C0.00053389 33.7969 0.000700421 33.7512 0.000700421 33.7067V18.2848C0.000700421 18.2403 0.00053389 18.1946 0.000363158 18.1477C-0.00146325 17.6464 -0.00375986 17.016 0.192535 16.4219C0.362246 15.9083 0.639675 15.4368 1.00627 15.039C1.43029 14.5788 1.98243 14.2747 2.42157 14.0328C2.46261 14.0102 2.50266 13.9882 2.54153 13.9666L16.601 6.15575L16.7141 6.09259C17.1289 5.86024 17.6507 5.56797 18.2345 5.44791ZM18.9909 9.18377C18.8813 9.23665 18.7343 9.31747 18.4464 9.47743L5.81285 16.4961L18.9999 23.8222L32.1871 16.496L19.5536 9.47742C19.2657 9.31747 19.1187 9.23665 19.0091 9.18377L19 9.17942L18.9909 9.18377ZM17.1 27.1136L3.80056 19.725V33.7067C3.80056 34.0543 3.80135 34.2323 3.80911 34.3611L3.8098 34.372L3.81899 34.3779C3.92785 34.4473 4.08301 34.5344 4.38691 34.7032L17.1001 41.766L17.1 27.1136ZM23.3465 37.3705C22.6028 37.7808 22.3326 38.7162 22.7428 39.4598C23.1531 40.2035 24.0885 40.4737 24.8321 40.0635L33.2205 35.4358C33.9641 35.0255 34.2344 34.0901 33.8241 33.3465C33.4139 32.6028 32.4785 32.3326 31.7348 32.7428L23.3465 37.3705Z" fill="#101828"></path><rect x="140" y="34" width="14" height="4" rx="2" fill="black"></rect><path d="M60.6289 38.332C55.3945 38.332 52.0938 34.1914 52.0938 27.4922C52.0938 20.8516 55.4141 16.7305 60.668 16.7305C63.6953 16.7305 66.0391 18.332 67.0547 20.6562H67.1719V12.375C67.1719 10.4219 68.3633 9.38672 70.0234 9.38672C71.7031 9.38672 72.875 10.4219 72.875 12.375V35.5195C72.875 37.4141 71.7031 38.4102 70.043 38.4102C68.4023 38.4102 67.1719 37.4336 67.1719 35.5195V34.3086H67.0742C66.1562 36.6523 63.8516 38.332 60.6289 38.332ZM62.5625 33.7422C65.3945 33.7422 67.2109 31.3594 67.2109 27.5312C67.2109 23.7227 65.3945 21.3008 62.5625 21.3008C59.6914 21.3008 57.9336 23.7031 57.9336 27.5312C57.9336 31.3789 59.6914 33.7422 62.5625 33.7422ZM86.3125 38.4492C79.7695 38.4492 75.9219 34.4062 75.9219 27.6289C75.9219 20.8906 79.8477 16.6133 86.0391 16.6133C91.9766 16.6133 95.9609 20.6758 95.9609 26.3594C95.9609 27.9414 95.0625 28.8398 93.4805 28.8398H81.5273V29.0938C81.5273 32.1992 83.4023 34.2305 86.293 34.2305C88.3828 34.2305 89.75 33.5273 91.293 31.7109C91.8984 31.0859 92.4062 30.8711 93.1484 30.8711C94.3789 30.8711 95.375 31.6523 95.375 32.9609C95.375 33.4102 95.2383 33.8789 94.9844 34.3477C93.5977 36.9258 90.3555 38.4492 86.3125 38.4492ZM81.5859 25.3438H90.4727C90.3555 22.6094 88.5977 20.832 86.0977 20.832C83.5977 20.832 81.7812 22.668 81.5859 25.3438ZM107.387 38.4102C105.199 38.4102 104.027 37.5312 103.266 35.5L97.8164 20.8906C97.6406 20.3828 97.5039 19.7773 97.5039 19.1914C97.5039 17.6484 98.7344 16.6328 100.355 16.6328C101.742 16.6328 102.66 17.375 103.09 18.918L107.328 32.9609H107.445L111.684 18.8594C112.074 17.3555 113.031 16.6328 114.359 16.6328C115.941 16.6328 117.133 17.7266 117.133 19.1719C117.133 19.6992 116.996 20.2852 116.82 20.7734L111.371 35.5C110.648 37.5117 109.457 38.4102 107.387 38.4102ZM128.832 38.4102C126.645 38.4102 125.473 37.5312 124.711 35.5L119.262 20.8906C119.086 20.3828 118.949 19.7773 118.949 19.1914C118.949 17.6484 120.18 16.6328 121.801 16.6328C123.188 16.6328 124.105 17.375 124.535 18.918L128.773 32.9609H128.891L133.129 18.8594C133.52 17.3555 134.477 16.6328 135.805 16.6328C137.387 16.6328 138.578 17.7266 138.578 19.1719C138.578 19.6992 138.441 20.2852 138.266 20.7734L132.816 35.5C132.094 37.5117 130.902 38.4102 128.832 38.4102Z" fill="black"></path></svg>