<svg width="110" height="113" viewBox="0 0 110 113" fill="none" xmlns="http://www.w3.org/2000/svg" focusable="false"><path d="M35.5566 61.8724C35.4953 61.3514 35.7791 60.2605 34.9065 59.3806C34.1857 58.6538 33.0183 58.4204 31.5823 58.6812C24.7834 59.8595 17.5757 67.7667 17.5629 67.7793C14.4515 70.8905 12.4808 74.5397 11.423 78.5228C10.9456 80.3368 10.6713 82.1771 10.6129 84.0309C10.4214 90.4178 12.7825 96.8025 17.5751 101.737C23.7206 108.086 30.1514 109.954 32.9287 110.867C50.3284 116.552 69.7322 110.537 83.6439 96.7396C103.243 77.302 103.525 45.7585 84.4314 25.9706C94.4337 36.3109 92.4531 54.6402 80.3776 66.6165C79.3958 67.5902 73.7221 73.0401 65.8388 75.4458C58.8962 77.576 53.6282 77.059 49.0997 75.8338C44.4062 74.5699 40.3569 71.099 38.8772 69.6071C37.3976 68.1152 35.9495 65.125 35.5566 61.8724Z" fill="url(#paint0_linear_1329_56103)"></path><path d="M73.8501 20.4112C74.4714 21.7789 75 23.1952 75.4536 24.661C76.8135 29.0764 77.4658 33.9001 77.1712 38.92C76.0788 57.5295 67.2339 74.0354 50.8116 73.0714C41.1839 72.5063 37.3284 65.7143 35.4528 61.8083C35.1648 78.6661 52.5712 87.1644 62.8441 87.7675C91.8879 89.4724 96.3994 62.8781 96.7383 57.1052C96.9203 54.0036 96.2996 49.2538 95.5695 46.3685C95.5262 46.186 95.4819 46.0215 95.4207 45.838C92.2967 34.6987 85.4333 25.0489 76.1963 18.4441C74.8664 17.5025 73.1813 18.9327 73.8501 20.4112Z" fill="url(#paint1_linear_1329_56103)"></path><path d="M48.256 3.55388C50.2049 0.220069 54.4434 -0.972338 57.8446 0.856334C61.2459 2.68501 62.5888 6.87827 60.8827 10.3426L35.3834 62.1204L19.1279 53.3807L48.256 3.55388Z" fill="url(#paint2_linear_1329_56103)"></path><path d="M0.603793 83.2547C-1.81777 74.4408 3.26195 64.9928 11.9497 62.1518C20.6374 59.3109 29.6432 64.1528 32.0648 72.9666C34.4864 81.7805 29.4066 91.2285 20.7189 94.0695L7.08582 98.5276C5.92746 98.9064 4.72668 98.2608 4.4038 97.0856L0.603793 83.2547Z" fill="url(#paint3_radial_1329_56103)"></path><path d="M14.783 61.5082L31.0384 70.2479L35.4083 62.1202L19.1528 53.3805L14.783 61.5082Z" fill="url(#paint4_linear_1329_56103)"></path><path d="M88.2734 14.3264C87.1501 13.5276 87.1501 11.8594 88.2734 11.0606L91.4638 8.79208C92.6959 7.91599 93.7723 6.83953 94.6484 5.60745L96.917 2.41711C97.7157 1.29375 99.384 1.29374 100.183 2.41711L102.451 5.60745C103.327 6.83953 104.404 7.91599 105.636 8.79208L108.826 11.0606C109.95 11.8594 109.95 13.5276 108.826 14.3264L105.636 16.595C104.404 17.471 103.327 18.5475 102.451 19.7796L100.183 22.9699C99.384 24.0933 97.7157 24.0933 96.917 22.9699L94.6484 19.7796C93.7723 18.5475 92.6959 17.471 91.4638 16.595L88.2734 14.3264Z" fill="url(#paint5_linear_1329_56103)"></path><path d="M61.607 33.6152C59.6674 32.236 59.6674 29.3556 61.607 27.9763L67.1157 24.0593C69.243 22.5466 71.1017 20.6879 72.6144 18.5606L76.5314 13.0519C77.9107 11.1123 80.7911 11.1123 82.1703 13.0519L86.0873 18.5606C87.6001 20.6879 89.4587 22.5466 91.5861 24.0593L97.0948 27.9763C99.0344 29.3556 99.0344 32.236 97.0948 33.6152L91.5861 37.5322C89.4587 39.0449 87.6001 40.9036 86.0873 43.031L82.1703 48.5396C80.7911 50.4793 77.9107 50.4793 76.5314 48.5396L72.6144 43.031C71.1017 40.9036 69.243 39.0449 67.1157 37.5322L61.607 33.6152Z" fill="url(#paint6_linear_1329_56103)"></path><defs><linearGradient id="paint0_linear_1329_56103" x1="35.5436" y1="112.999" x2="109.734" y2="61.1316" gradientUnits="userSpaceOnUse"><stop stop-color="#C640F0"></stop><stop offset="1" stop-color="#F3CBFF"></stop></linearGradient><linearGradient id="paint1_linear_1329_56103" x1="51.3836" y1="87.8459" x2="82.0965" y2="37.0533" gradientUnits="userSpaceOnUse"><stop offset="0.284714" stop-color="#E9ACFA"></stop><stop offset="0.951408" stop-color="#C640F0"></stop></linearGradient><linearGradient id="paint2_linear_1329_56103" x1="34.4925" y1="25.5844" x2="50.5182" y2="34.9085" gradientUnits="userSpaceOnUse"><stop stop-color="#E9ACFA"></stop><stop offset="0.871558" stop-color="#8260F6"></stop></linearGradient><radialGradient id="paint3_radial_1329_56103" cx="0" cy="0" r="1" gradientUnits="userSpaceOnUse" gradientTransform="translate(10.0506 69.6152) rotate(67.3313) scale(43.6836 38.2686)"><stop stop-color="#E9ACFA"></stop><stop offset="0.658981" stop-color="#4B35F1"></stop></radialGradient><linearGradient id="paint4_linear_1329_56103" x1="15.799" y1="51.5771" x2="35.4084" y2="62.12" gradientUnits="userSpaceOnUse"><stop stop-color="#AA6CF5"></stop><stop offset="1" stop-color="#4B35F1"></stop></linearGradient><linearGradient id="paint5_linear_1329_56103" x1="87.4309" y1="1.57458" x2="109.459" y2="21.7176" gradientUnits="userSpaceOnUse"><stop offset="0.19096" stop-color="#C886F8"></stop><stop offset="0.774317" stop-color="#4B35F1"></stop></linearGradient><linearGradient id="paint6_linear_1329_56103" x1="60.1523" y1="11.5972" x2="98.1869" y2="46.3773" gradientUnits="userSpaceOnUse"><stop offset="0.217003" stop-color="#C886F8"></stop><stop offset="0.769109" stop-color="#4B35F1"></stop></linearGradient></defs></svg>